# xmcd
#
# Track frame offsets:
#	183
#	12635
#	25243
#	36778
#	50145
#	61453
#	75288
#	86438
#	99238
#	111905
#	123358
#	135033
#	147500
#	160793
#
# Disc length: 2326 seconds
#
# Revision: 1
# Processed by: cddbd v1.5.2PL0 Copyright (c) Steve Scherf et al.
# Submitted via: audiograbber 1.83.01
#
DISCID=ae09140e
DTITLE=Various Artist - Trumpet Masters, Vol. 4 - Crazy 'Bout That Mess
DYEAR=1900
DGENRE=Blues
TTITLE0=Jerry "Boogie" McCain - Wine-O-Wine
TTITLE1=Jerry "Boogie" McCain - East Of The Sun
TTITLE2=Jerry "Boogie" McCain - Stay Out Of Automobiles
TTITLE3=Jerry "Boogie" McCain - Love To Make Up
TTITLE4=Jerry "Boogie" McCain - Fall Guy
TTITLE5=Jerry "Boogie" McCain - Middle Of The Night
TTITLE6=Jerry "Boogie" McCain - Crazy 'Bout That Mess
TTITLE7=Sonny Boy Williamson - She's Crazy
TTITLE8=Sonny Boy Williamson - I'm Not Beggin' Nobody
TTITLE9=Willie Love and His Three Aces - Feed My Body To The Fishes
TTITLE10=Willie Love and His Three Aces - 21 Minutes To 9
TTITLE11=Willie Love and His Three Aces - Wonderful Baby
TTITLE12=Lonnie Holmes and His Dark Town Boys - '51 Boogie
TTITLE13=Lonnie Holmes and His Dark Town Boys - Deep In Love Blues
EXTD=
EXTT0=
EXTT1=
EXTT2=
EXTT3=
EXTT4=
EXTT5=
EXTT6=
EXTT7=
EXTT8=
EXTT9=
EXTT10=
EXTT11=
EXTT12=
EXTT13=
PLAYORDER=
